# AST/ASF file generated using VICON BodyLanguage
# -----------------------------------------------
:version 1.10
:name VICON
:units
  mass 1.0
  length 0.45
  angle deg
:documentation
   .ast/.asf automatically generated from VICON data using
   VICON BodyBuilder and BodyLanguage model FoxedUp or BRILLIANT.MOD
:root
   order TX TY TZ RX RY RZ
   axis XYZ
   position 0 0 0  
   orientation 0 0 0 
:bonedata
  begin
     id 1 
     name lhipjoint
     direction 0.606768 -0.715223 0.346827 
     length 2.41543 
     axis 0 0 0  XYZ
  end
  begin
     id 2 
     name lfemur
     direction 0.34202 -0.939693 0  
     length 7.2778  
     axis 0 0 20  XYZ
    dof rx ry rz
    limits (-160.0 20.0)
           (-70.0 70.0)
           (-60.0 70.0)
  end
  begin
     id 3 
     name ltibia
     direction 0.34202 -0.939693 0   
     length 7.61811   
     axis 0 0 20   XYZ
    dof rx
    limits (-10.0 170.0)
  end
  begin
     id 4 
     name lfoot
     direction 0.0823924 -0.226371 0.97055   
     length 2.33618   
     axis -90 7.62852e-016 20   XYZ
    dof rx rz
    limits (-45.0 90.0)
           (-70.0 20.0)
  end
  begin
     id 5 
     name ltoes
     direction 1.53554e-011 -4.21934e-011 1   
     length 1.17015   
     axis -90 7.62852e-016 20   XYZ
    dof rx
    limits (-90.0 20.0)
  end
  begin
     id 6 
     name rhipjoint
     direction -0.6077 -0.714582 0.346516   
     length 2.4176  
     axis 0 0 0  XYZ 
  end
  begin
     id 7 
     name rfemur
     direction -0.34202 -0.939693 0   
     length 7.28127   
     axis 0 0 -20   XYZ
    dof rx ry rz
    limits (-160.0 20.0)
           (-70.0 70.0)
           (-70.0 60.0)
  end
  begin
     id 8 
     name rtibia
     direction -0.34202 -0.939693 0   
     length 7.77648   
     axis 0 0 -20   XYZ
    dof rx
    limits (-10.0 170.0)
 end
 begin
     id 9 
     name rfoot
     direction -0.0809463 -0.222398 0.97159   
     length 2.37533  
     axis -90 -7.62852e-016 -20   XYZ
    dof rx rz
    limits (-45.0 90.0)
           (-20.0 70.0)
  end
  begin
     id 10 
     name rtoes
     direction -1.53568e-011 -4.21714e-011 1   
     length 1.18972   
     axis -90 -7.62852e-016 -20   XYZ
    dof rx
    limits (-90.0 20.0)
  end
  begin
     id 11 
     name lowerback
     direction 0.010968 0.991932 -0.126297   
     length 2.21698   
     axis 0 0 0   XYZ
    dof rx ry rz
    limits (-20.0 45.0)
           (-30.0 30.0)
           (-30.0 30.0)
  end
  begin
     id 12 
     name upperback
     direction 0.0167007 0.997503 -0.0686276   
     length 2.22371   
     axis 0 0 0   XYZ
    dof rx ry rz
    limits (-20.0 45.0)
           (-30.0 30.0)
           (-30.0 30.0)
  end
  begin
     id 13 
     name thorax
     direction 0.0111721 0.999885 -0.0102878   
     length 2.25242   
     axis 0 0 0   XYZ
    dof rx ry rz
    limits (-20.0 45.0)
           (-30.0 30.0)
           (-30.0 30.0)
  end
  begin
     id 14 
     name lowerneck
     direction -0.0120265 0.990428 0.137508   
     length 1.57674   
     axis 0 0 0   XYZ
    dof rx ry rz
    limits (-20.0 45.0)
           (-30.0 30.0)
           (-30.0 30.0)
  end
  begin
     id 15 
     name upperneck
     direction 0.0175669 0.998907 0.0433089   
     length 1.5618   
     axis 0 0 0   XYZ
    dof rx ry rz
    limits (-20.0 45.0)
           (-30.0 30.0)
           (-30.0 30.0)
  end
  begin
     id 16
     name head
     direction 0.00754609 0.99997 0.00185367  
     length 1.60579  
     axis 0 0 0   XYZ
    dof rx ry rz
    limits (-20.0 45.0)
           (-30.0 30.0)
           (-30.0 30.0)
  end
  begin
     id 17 
     name lclavicle
     direction 0.885866 0.429166 -0.176231  
     length 3.44967  
     axis 0 0 0   XYZ
    dof ry rz
    limits (-20.0 10.0)
           (0.0 20.0)
  end
  begin
     id 18 
     name lhumerus
     direction 1 -4.48973e-011 -1.90255e-027   
     length 5.20607   
     axis 180 -30 -90   XYZ
    dof rx ry rz
    limits (-60.0 90.0)
           (-90.0 90.0)
           (-90.0 90.0)
  end
  begin
     id 19
     name lradius
     direction 1 -4.48956e-011 9.87925e-027   
     length 3.39961   
     axis 180 -30 -90   XYZ
    dof rx
    limits (-10.0 170.0)
  end
  begin
     id 20
     name lwrist
     direction 1 -4.48985e-011 1.73247e-026   
     length 1.6998   
     axis -9.60847e-015 90 90   XYZ
    dof ry
    limits (-180.0 0.0)
 end
  begin
     id 21 
     name lhand
     direction 1 -4.48798e-011 3.46119e-026   
     length 0.519693   
     axis -2.21073e-014 90 90   XYZ
    dof rx rz
    limits (-90.0 90.0)
           (-45.0 45.0)
  end
  begin
     id 22 
     name lfingers
     direction 1 -4.48938e-011 6.92797e-026   
     length 0.41899   
     axis -4.42155e-014 90 90   XYZ
    dof rx
    limits (0.0 90.0)
  end
  begin
     id 23
     name lthumb
     direction 0.707107 -6.34952e-011 0.707107   
     length 0.601588   
     axis -90 45 6.0103e-014   XYZ
    dof rx rz
    limits (-45.0 45.0)
           (-45.0 45.0)
  end
  begin
     id 24 
     name rclavicle
     direction -0.866736 0.456792 -0.200276   
     length 3.45032  
     axis 0 0 0   XYZ 
    dof ry rz
    limits (-10.0 20.0)
           (-20.0 0.0)
  end
  begin
     id 25 
     name rhumerus
     direction -1 -4.4897e-011 8.65094e-028  
     length 5.32214   
     axis 180 30 90   XYZ
    dof rx ry rz
    limits (-90.0 60.0)
           (-90.0 90.0)
           (-90.0 90.0)
  end
  begin
     id 26 
     name rradius
     direction -1 -4.48987e-011 1.08427e-026   
     length 3.51208   
     axis 180 30 90   XYZ
    dof rx
    limits (-10.0 170.0)
  end
  begin
     id 27 
     name rwrist
     direction -1 -4.48961e-011 1.73222e-026   
     length 1.75604   
     axis -9.60847e-015 -90 -90   XYZ
    dof ry
    limits (-180.0 0.0)
  end
  begin
     id 28
     name rhand
     direction -1 -4.48895e-011 3.46314e-026   
     length 0.586681   
     axis -2.21073e-014 -90 -90   XYZ
    dof rx rz
    limits (-90.0 90.0)
           (-45.0 45.0)
  end
  begin
     id 29
     name rfingers
     direction -1 -4.48968e-011 6.92916e-026   
     length 0.472997   
     axis -4.42155e-014 -90 -90   XYZ
    dof rx
    limits (0.0 90.0)
  end
  begin
     id 30
     name rthumb
     direction -0.707107 -6.34848e-011 0.707107   
     length 0.679133   
     axis -90 -45 -6.0103e-014   XYZ
    dof rx rz
    limits (-45.0 45.0)
           (-45.0 45.0)
  end
:hierarchy
  begin
    root lhipjoint rhipjoint lowerback
    lhipjoint lfemur
    lfemur ltibia
    ltibia lfoot
    lfoot ltoes
    rhipjoint rfemur
    rfemur rtibia
    rtibia rfoot
    rfoot rtoes
    lowerback upperback
    upperback thorax
    thorax lowerneck lclavicle rclavicle
    lowerneck upperneck
    upperneck head
    lclavicle lhumerus
    lhumerus lradius
    lradius lwrist
    lwrist lhand lthumb
    lhand lfingers
    rclavicle rhumerus
    rhumerus rradius
    rradius rwrist
    rwrist rhand rthumb
    rhand rfingers
  end

#!OML:ASF H:\Dans Jumps\Project 1\Capture day 1\Session 1\subject.ASF
:FULLY-SPECIFIED
:DEGREES
32
root 0.212653 17.5397 -14.3564 8.88908 -0.612037 -1.29844
lowerback 2.49026 -0.0496237 -0.162334
upperback 6.48314 -0.133921 1.6056
thorax 5.31347 -0.122422 1.75208
lowerneck -11.7083 0.521325 -1.25945
upperneck 34.8862 0.934749 0.444636
head 13.7644 0.297147 0.539227
rclavicle -3.18055e-015 -2.18663e-015
rhumerus -32.0002 -9.01845 -80.4256
rradius 37.0915
rwrist 18.2093
rhand -20.8145 -27.9501
rfingers 7.12502
rthumb 5.55341 -57.8573
lclavicle -3.18055e-015 -2.18663e-015
lhumerus -27.4162 -3.40687 87.3214
lradius 28.3802
lwrist 14.4763
lhand -26.6191 -4.13054
lfingers 7.12502
lthumb -0.0522286 25.8492
rfemur -21.4656 -3.01974 19.8975
rtibia 26.6824
rfoot -13.0042 -3.56166
rtoes 9.33045
lfemur -20.2704 7.23258 -18.9379
ltibia 24.0152
lfoot -10.6983 4.44647
ltoes 4.94086
33
root 0.213616 17.5397 -14.3564 8.89153 -0.619899 -1.30305
lowerback 2.49316 -0.0472978 -0.159058
upperback 6.47854 -0.13089 1.60832
thorax 5.30684 -0.12078 1.7531
lowerneck -11.7133 0.519097 -1.25559
upperneck 34.8741 0.931746 0.440798
head 13.7602 0.295927 0.536511
rclavicle 6.95746e-016 -5.1684e-015
rhumerus -31.9868 -9.00408 -80.4281
rradius 37.1195
rwrist 18.2006
rhand -20.8036 -27.9478
rfingers 7.12502
rthumb 5.56394 -57.8547
lclavicle 6.95746e-016 -5.1684e-015
lhumerus -27.4102 -3.40249 87.3293
lradius 28.3933
lwrist 14.4633
lhand -26.6223 -4.11637
lfingers 7.12502
lthumb -0.0552644 25.8634
rfemur -21.4683 -3.01761 19.8991
rtibia 26.6796
rfoot -13.0002 -3.55683
rtoes 9.31717
lfemur -20.2744 7.23679 -18.9368
ltibia 24.0186
lfoot -10.7001 4.45029
ltoes 4.94263
34
root 0.214521 17.5397 -14.3564 8.89363 -0.62752 -1.30492
lowerback 2.49706 -0.0455389 -0.159695
upperback 6.4732 -0.128538 1.61043
thorax 5.29891 -0.119643 1.75565
lowerneck -11.7139 0.517391 -1.2541
upperneck 34.8603 0.929027 0.439881
head 13.7542 0.294915 0.535386
rclavicle -4.67144e-015 -1.09332e-014
rhumerus -31.9706 -8.99213 -80.4304
rradius 37.1419
rwrist 18.1907
rhand -20.7962 -27.9426
rfingers 7.12502
rthumb 5.57112 -57.8493
lclavicle -4.67144e-015 -1.09332e-014
lhumerus -27.4078 -3.39004 87.3364
lradius 28.4077
lwrist 14.4458
lhand -26.6158 -4.10456
lfingers 7.12502
lthumb -0.0489901 25.8752
rfemur -21.4716 -3.01651 19.8979
rtibia 26.6793
rfoot -12.9982 -3.55154
rtoes 9.31176
lfemur -20.2772 7.24021 -18.9387
ltibia 24.0204
lfoot -10.7008 4.45427
ltoes 4.93756
35
root 0.215364 17.5396 -14.3565 8.89528 -0.635354 -1.30335
lowerback 2.50149 -0.0437038 -0.165026
upperback 6.46807 -0.126019 1.61192
thorax 5.29091 -0.118639 1.76021
lowerneck -11.7134 0.515989 -1.25328
upperneck 34.8466 0.926362 0.440537
head 13.748 0.294048 0.535008
rclavicle -2.28602e-015 -3.37934e-015
rhumerus -31.9504 -8.98404 -80.4317
rradius 37.1578
rwrist 18.1821
rhand -20.7933 -27.9387
rfingers 7.12502
rthumb 5.57396 -57.8454
lclavicle -2.28602e-015 -3.37934e-015
lhumerus -27.406 -3.37248 87.3434
lradius 28.4248
lwrist 14.4277
lhand -26.606 -4.09363
lfingers 7.12502
lthumb -0.0395751 25.8861
rfemur -21.4762 -3.01486 19.893
rtibia 26.6819
rfoot -12.9984 -3.54711
rtoes 9.31729
lfemur -20.2787 7.24174 -18.9439
ltibia 24.0209
lfoot -10.7006 4.45921
ltoes 4.93523
36
root 0.216127 17.5396 -14.3566 8.8968 -0.64317 -1.29915
lowerback 2.50891 -0.0421237 -0.174182
upperback 6.4617 -0.123745 1.6128
thorax 5.2799 -0.117907 1.76625
lowerneck -11.7123 0.514753 -1.25364
upperneck 34.8341 0.923599 0.443049
head 13.7422 0.293213 0.535572
rclavicle -2.5842e-015 -9.74045e-015
rhumerus -31.9277 -8.97827 -80.4333
rradius 37.1685
rwrist 18.1707
rhand -20.7873 -27.9461
rfingers 7.12502
rthumb 5.57969 -57.8526
lclavicle -2.5842e-015 -9.74045e-015
lhumerus -27.4037 -3.35681 87.3511
lradius 28.4407
lwrist 14.4147
lhand -26.5931 -4.10245
lfingers 7.12502
lthumb -0.0270713 25.8773
rfemur -21.4824 -3.01373 19.8856
rtibia 26.6873
rfoot -13.0001 -3.54323
rtoes 9.32748
lfemur -20.28 7.24378 -18.9519
ltibia 24.0211
lfoot -10.7008 4.46306
ltoes 4.94098
37
root 0.216855 17.5394 -14.3568 8.89823 -0.649873 -1.29263
lowerback 2.51773 -0.0409944 -0.186986
upperback 6.45547 -0.122045 1.61395
thorax 5.26828 -0.117646 1.77461
lowerneck -11.7119 0.514062 -1.25635
upperneck 34.8223 0.921745 0.447117
head 13.7368 0.292664 0.537315
rclavicle -1.98785e-016 4.17448e-015
rhumerus -31.9019 -8.97479 -80.4332
rradius 37.1758
rwrist 18.1624
rhand -20.777 -27.9603
rfingers 7.12502
rthumb 5.5897 -57.8665
lclavicle -1.98785e-016 4.17448e-015
lhumerus -27.3982 -3.34341 87.3605
lradius 28.4561
lwrist 14.4088
lhand -26.567 -4.10437
lfingers 7.12502
lthumb -0.00184038 25.8754
rfemur -21.4896 -3.01312 19.876
rtibia 26.6945
rfoot -13.0026 -3.54164
rtoes 9.33413
lfemur -20.2818 7.24504 -18.9624
ltibia 24.0228
lfoot -10.7018 4.46667
ltoes 4.95211
